# xmcd CD database file
#
# Track frame offsets:
#	150
#	26179
#	41283
#	70869
#	87125
#	108218
#	125513
#	149040
#	166328
#	190491
#	215675
#	232545
#	247442
#	263771
#
# Disc length: 3779 seconds
#
# Revision: 0
# Processed by: cddbd v1.5.2PL0 Copyright (c) Steve Scherf et al.
# Submitted via: CDex 1.70beta2
#
DISCID=ca0ec10e
DTITLE=Aki Takase - Rudi Mahall - Evergreen
DYEAR=2008
DGENRE=Jazz
TTITLE0=Mood Indigo
TTITLE1=I´ll Remember April
TTITLE2=Bel Ami
TTITLE3=Tea for Two
TTITLE4=Moonglow
TTITLE5=You and the Night and the Music
TTITLE6=How Long Has This Been Going On
TTITLE7=Cleopatra's Dream
TTITLE8=I'm Beginning to See the Light
TTITLE9=Two Sleepy People
TTITLE10=Good Bait
TTITLE11=You Took Advantage of Me
TTITLE12=It's Only a Paper Moon
TTITLE13=Lulu's Back in Town
EXTD=YEAR: 2008
EXTT0=
EXTT1=
EXTT2=
EXTT3=
EXTT4=
EXTT5=
EXTT6=
EXTT7=
EXTT8=
EXTT9=
EXTT10=
EXTT11=
EXTT12=
EXTT13=
PLAYORDER=
